<svg width="400" height="139" viewBox="0 0 400 139" fill="none" xmlns="http://www.w3.org/2000/svg">
<g clip-path="url(#clip0)">
<path d="M93.0463 73.483C92.8812 56.1687 107.192 47.8499 107.835 47.4538C99.7805 35.6853 87.2693 34.0678 82.8128 33.8862C72.1667 32.7968 62.0323 40.1583 56.6185 40.1583C51.2047 40.1583 42.8694 34.0348 34.0389 34.2163C22.419 34.3814 11.7069 40.9671 5.71536 51.3656C-6.33369 72.2616 2.64533 103.292 14.4138 120.276C20.1742 128.579 27.0075 137.937 36.0196 137.591C44.7015 137.244 47.9696 131.979 58.4341 131.979C68.8986 131.979 71.8531 137.591 81.0137 137.426C90.3393 137.244 96.2483 128.942 101.959 120.606C108.528 110.951 111.252 101.625 111.417 101.13C111.202 101.047 93.2443 94.1645 93.0463 73.483Z" fill="black"/>
<path d="M75.8309 22.6294C80.6175 16.836 83.8361 8.79776 82.9613 0.776062C76.0785 1.05666 67.7432 5.36461 62.808 11.1581C58.3846 16.2748 54.5058 24.4615 55.5621 32.3182C63.2042 32.9124 71.0608 28.4064 75.8309 22.6294ZM153.407 90.5002L145.484 114.516H135.3L161.231 38.1941H173.115L199.144 114.516H188.613L180.46 90.5002H153.407ZM178.429 82.7922L170.969 60.8233C169.269 55.8386 168.146 51.3161 167.008 46.8926H166.793C165.654 51.4151 164.416 56.0532 162.947 60.7077L155.487 82.7756L178.429 82.7922ZM206.869 77.5929C206.869 70.578 206.654 64.9001 206.406 59.7009H215.352L215.815 69.1091H216.029C220.106 62.4243 226.56 58.463 235.506 58.463C248.76 58.463 258.712 69.6702 258.712 86.3243C258.712 106.032 246.713 115.754 233.806 115.754C226.56 115.754 220.222 112.585 216.937 107.154H216.722V136.93H206.869V77.5929V77.5929ZM216.706 92.2003C216.706 93.6858 216.92 95.0228 217.168 96.2772C218.984 103.177 224.975 107.947 232.122 107.947C242.653 107.947 248.776 99.3472 248.776 86.77C248.776 75.7773 242.999 66.4021 232.469 66.4021C225.685 66.4021 219.347 71.2713 217.399 78.7483C217.052 79.9862 216.722 81.4717 216.722 82.8252L216.706 92.2003ZM269.012 77.5929C269.012 70.578 268.797 64.9001 268.55 59.7009H277.496L277.958 69.1091H278.173C282.249 62.4243 288.703 58.463 297.649 58.463C310.903 58.463 320.856 69.6702 320.856 86.3243C320.856 106.032 308.856 115.754 295.949 115.754C288.703 115.754 282.365 112.585 279.08 107.154H278.866V136.93H269.012V77.5929V77.5929ZM278.866 92.2003C278.866 93.6858 279.08 95.0228 279.328 96.2772C281.144 103.177 287.135 107.947 294.282 107.947C304.812 107.947 310.936 99.3472 310.936 86.77C310.936 75.7773 305.159 66.4021 294.629 66.4021C287.845 66.4021 281.507 71.2713 279.559 78.7483C279.212 79.9862 278.882 81.4717 278.882 82.8252L278.866 92.2003ZM331.172 34.1173H341.141V114.499H331.172V34.1173ZM361.179 88.9157C361.394 102.384 370.009 107.947 379.962 107.947C387.093 107.947 391.401 106.709 395.131 105.124L396.831 112.255C393.332 113.839 387.324 115.655 378.609 115.655C361.74 115.655 351.655 104.563 351.655 88.0244C351.655 71.4858 361.394 58.463 377.354 58.463C395.246 58.463 400 74.1928 400 84.2777C400 86.3243 399.785 87.8924 399.653 88.9157H361.179ZM390.394 81.7853C390.509 75.4472 387.786 65.5934 376.579 65.5934C366.494 65.5934 362.087 74.886 361.294 81.7853H390.394V81.7853Z" fill="black"/>
</g>
<defs>
<clipPath id="clip0">
<rect width="400" height="138" fill="white" transform="translate(0 0.187988)"/>
</clipPath>
</defs>
</svg>
