<svg width="400" height="133" viewBox="0 0 400 133" fill="none" xmlns="http://www.w3.org/2000/svg">
<g clip-path="url(#clip0)">
<path d="M153.604 114.954C138.72 105.366 118.521 103.684 85.9447 112.722C51.2162 120.883 39.6372 126.114 24.4306 115.612C18.5886 110.453 16.4941 102.147 18.0581 90.1819C21.6856 70.6769 31.4886 51.9064 48.9017 31.0854C58.6207 20.2543 67.6367 10.9593 79.5412 7.22683C88.6652 4.88533 87.8122 12.0558 86.7082 13.0813C85.5432 13.0813 83.5862 13.2648 82.0737 14.2518C80.8462 15.2038 77.4767 18.2778 77.2957 22.4128C77.0347 28.7428 83.5852 27.4253 86.4107 23.9498C89.4562 20.0333 93.9572 12.5333 90.4167 5.54333C88.9327 3.05533 86.3687 1.33582 83.1852 0.750323C72.2842 0.127323 62.1322 5.32383 52.7622 11.0688C32.2711 25.3033 15.8796 45.0274 6.60462 66.6174C1.25762 79.6439 -3.57839 98.3039 3.67012 113.491C9.27812 124.029 20.9196 129.627 34.8091 128.456C44.5507 127.433 56.3302 124.284 64.2527 122.383C72.1757 120.479 112.73 106.539 126.055 130.801C126.055 130.801 130.486 122.2 141.559 122.016C150.663 121.176 163.797 124.652 173.361 131.676C170.175 126.884 161.141 119.822 153.604 114.954V114.954Z" fill="black"/>
<path d="M90.0797 33.5369C82.4947 28.5604 67.2497 38.0744 55.0391 54.3939C43.8731 69.0324 39.0516 86.0459 44.2991 93.9134C52.1041 103.171 66.5947 89.7054 72.7567 82.4979L73.5517 81.6554C77.7422 77.1544 80.9792 71.7384 84.1132 66.5414C84.1132 66.5414 86.9932 61.7844 87.1307 61.5644C88.9107 61.2364 91.0547 60.7239 93.4707 60.0284C93.4362 60.1374 84.2272 75.6164 85.1667 83.2994C85.4592 85.6434 85.2362 94.2059 93.5957 96.8034C104.738 98.6709 113.635 90.0339 121.484 82.3494C121.484 82.3494 122.821 81.0699 123.578 80.3394C123.386 81.1054 123.137 82.1279 123.137 82.1279C119.875 93.4719 124.272 95.8524 127.022 96.7304C135.335 99.1474 145.265 87.0709 145.298 87.0709C145.04 90.8749 144.287 94.0214 148.297 96.5469C152.082 97.9019 155.912 95.8359 158.824 93.8964C169.312 86.5054 177.761 74.9364 184.585 64.9369H180.232C180.18 64.9369 169.491 80.4309 162.549 83.7984C162.538 83.7984 161.275 84.4469 160.547 83.9339C159.646 83.1654 160.001 81.5669 160.558 80.4349C160.593 80.3614 187.36 33.9369 187.36 33.9369H174.722C174.722 33.9369 173.341 36.1704 173.229 36.3169C173.144 36.2439 172.941 35.8599 172.801 35.6759C164.971 24.8449 147.24 41.5049 133.89 60.8249C128.751 68.2539 122.207 76.6184 115.422 82.6559C115.422 82.6559 105.37 91.8699 101.076 85.2499C99.5057 82.4684 99.9887 78.4019 100.874 75.7314C105.875 61.4964 114.491 48.5779 124.297 40.7834C127.064 38.6259 130.073 38.0019 131.566 38.9169C132.989 39.7599 133.218 41.8439 132.318 43.2714C130.035 43.1984 128.205 43.8924 126.718 45.4294C123.788 48.5034 122.77 51.4679 123.701 54.2494C128.227 60.6894 137.252 47.9549 136.816 40.1974C136.66 37.4159 135.176 34.7819 132.961 33.4999C129.661 31.5249 124.626 32.0364 121.367 33.6109C117.005 35.2569 110.1 41.0014 106.07 45.4664C100.996 51.0659 92.2932 57.2859 89.5722 56.5894C90.4617 54.2104 97.8122 39.1714 90.0797 33.5369V33.5369ZM151.01 55.7849C153.469 52.3824 160.624 43.2704 162.369 41.7339C168.236 36.5724 170.581 38.8434 170.784 40.4524C165.308 50.2589 158.846 61.4934 152.77 71.5934C152.782 71.5574 150.868 74.4839 150.868 74.4839C148.185 78.5809 145.483 82.0944 141.075 84.5454C140.447 84.7299 139.411 84.8034 138.721 84.2889C137.891 83.7399 137.564 82.8249 137.657 81.8734C137.922 78.7274 141.125 69.1054 151.01 55.7849V55.7849ZM82.2577 61.6759C82.2577 61.6759 82.1472 62.0064 82.0932 62.1144C82.0792 62.1144 76.5827 71.0784 76.5827 71.0784C73.2657 75.5069 69.1242 81.0704 63.9471 83.7404C62.4126 84.2524 60.2911 84.5829 59.2101 83.2299C56.9186 80.4849 58.0996 76.6789 59.0591 73.6059L59.3991 72.5079C62.1501 65.0439 66.5147 58.4559 70.7637 52.3449C70.8167 52.3089 70.9357 52.2724 70.9787 52.2724C70.9892 52.3089 71.0062 52.3089 71.0132 52.3824C73.6792 57.5044 78.6782 59.8819 82.4167 60.9814C82.4392 60.9814 82.4637 61.0179 82.4637 61.0914C82.4642 61.2004 82.4032 61.3479 82.2577 61.6759V61.6759ZM87.4647 51.1019C87.4402 51.1749 85.0167 56.7369 85.0167 56.7369C84.6662 57.0294 84.1122 56.8834 83.4772 56.7369L82.3892 56.5529C78.9727 55.4924 76.3957 53.2234 75.6012 50.5159C74.5057 45.2464 79.0072 41.1114 80.9902 39.6119C82.8932 38.2934 85.8517 37.5984 87.5697 38.9529C88.6292 40.1974 89.0307 41.8069 89.0307 43.5644C89.0312 45.9419 88.2972 48.6129 87.4647 51.1019ZM247.235 68.0794C246.016 65.4454 243.123 63.7619 240.04 63.9444C230.029 64.8599 220.236 73.0929 215.094 84.9114C212.396 90.9864 210.924 95.9989 209.958 103.976C213.072 100.391 219.422 94.4999 226.628 91.2794C226.628 91.2794 227.608 83.6319 232.608 76.8254C234.5 74.0069 238.286 69.4699 242.538 70.6769C246.253 71.9214 244.947 82.2044 240.01 92.1554C236.357 99.4749 230.767 106.795 225.111 111.844C220.11 116.088 212.712 121.211 206.239 117.26C202.162 114.846 200.082 109.794 200.521 103.281C202.469 84.8029 210.881 69.0679 222.919 51.1379C235.331 34.4884 249.013 17.3999 267.444 8.28686C271.204 6.38436 274.685 5.94536 277.695 7.11636C277.695 7.11636 260.393 16.6304 252.145 34.2319C250.047 38.6969 247.129 44.7329 250.068 50.0759C251.603 52.8564 254.329 53.0764 256.525 52.9299C266.634 50.5874 273.166 41.1469 278.502 32.5119C281.596 25.9619 284.346 19.4484 284.346 12.2029C284.346 11.3249 284.301 10.1544 284.227 9.27536C289.056 6.71486 298.961 11.2514 298.961 11.2514C306.7 13.8139 323.18 26.4389 328.739 28.8529C331.45 25.7064 335.906 20.9499 338.416 18.5709L334.783 16.3384C328.968 12.7889 322.822 9.42186 316.772 6.09236C303.033 -1.40815 291.849 1.22585 286.157 3.27536C283.92 4.07986 281.876 4.77536 281.876 4.77536C277.652 0.164854 270.724 0.602854 265.62 1.84786C247.263 7.11686 230.219 19.9604 211.947 42.2459C198.513 59.7009 190.18 74.7774 185.738 89.6699C182.315 99.6959 181.274 114.442 189.63 123.188C196.735 130.615 206.155 129.006 212.807 126.336C227.221 119.237 240.175 103.94 246.63 86.3389C248.188 81.1069 249.917 73.7154 247.235 68.0794V68.0794ZM280.378 12.9354C278.47 34.8179 261.461 47.6629 257.252 48.6859C254.701 49.1974 250.349 48.0639 254.235 38.8804C259.956 26.5109 269.724 16.0099 280.204 10.6304C280.46 11.5454 280.453 12.1294 280.378 12.9354V12.9354ZM381.277 15.7154C372.128 20.9124 362.643 24.2779 351.162 23.1074C347.98 26.6944 344.882 30.3899 342.026 34.1949C358.141 38.2934 375.224 29.1819 384.752 20.5104C394.832 11.7644 400 0.750854 400 0.750854C400 0.750854 392.445 9.38586 381.277 15.7154ZM208.364 33.9379H196.362L189.592 44.9379H201.592L208.364 33.9379Z" fill="black"/>
<path d="M351.114 115.973C349.823 116.851 348.01 116.176 348.688 114.164C350.377 109.041 357.09 98.6009 357.09 98.6009L375.788 65.4379H362.98C362.371 66.4379 361.07 68.7339 361.07 68.7339C360.477 67.7469 358.705 65.5524 357.976 65.0779C354.847 63.1004 350.256 64.0354 347.089 65.8279C333.32 73.8794 323.273 89.7869 315.35 102.192C315.35 102.192 307.009 115.982 302.38 117.008C298.765 117.301 299.138 112.432 299.295 111.297C300.692 103.099 303.938 95.3059 307.207 88.2434C313.858 83.6329 321.448 77.5954 328.345 70.9724C343.314 56.6634 355.934 40.4528 357.778 36.8303C357.778 36.8303 355.782 37.2333 353.424 37.3058C341.908 53.3698 318.342 76.7169 311.198 80.1924C314.363 72.5794 334.812 36.2443 352.213 18.8633L354.951 16.2278C359.186 12.0928 363.573 7.84831 366.992 7.15281C367.353 7.11631 367.818 7.15281 368.219 7.99581C368.372 11.2153 367.173 13.5943 365.798 16.3018L363.871 20.2543C363.871 20.2543 366.601 19.7418 368.394 19.1548C370.473 15.2413 372.777 10.8488 371.928 5.61731C371.645 3.9338 370.426 2.6533 368.833 2.3603C363.642 1.3723 357.985 5.21331 353.433 8.32481L353.249 8.43381C329.848 26.7668 310.089 53.1869 292.813 89.2674C291.561 90.2174 286.723 91.3529 285.901 90.8034C287.607 87.2914 289.755 82.5699 290.83 77.4469C291.016 75.9824 291.189 74.4834 291.189 73.0199C291.189 69.8704 290.433 66.9074 287.612 64.8594C284.304 63.2124 280.215 63.9814 277.458 65.2244C265.11 70.3474 255.88 83.0094 249.22 93.4369C245.638 100.062 242.066 107.157 241.077 115.282C240.381 121.648 241.799 125.747 245.419 127.797C249.141 129.698 253.826 127.722 255.666 126.771C268.177 120.184 276.918 106.975 283.808 94.8994C284.082 94.8634 287.844 94.7544 290.69 94.0214C290.728 94.0214 290.744 94.0214 290.807 94.0594C290.644 94.6064 289.173 98.9989 289.173 98.9989C284.806 111.805 282.787 120.515 286.912 125.674C292.806 132.956 302.565 125.419 310.504 115.464C308.8 127.392 314.982 129.26 319.695 128.346C325.108 126.883 331.141 121.1 333.94 118.137C333.041 121.612 333.285 127.834 338.21 128.455C341.585 129.079 344.112 127.243 347.034 125.669C357.519 119.96 370.069 100.937 373.328 95.4369H369.055C364.423 102.438 358.528 111.616 351.114 115.973V115.973ZM257.005 114.699C256.34 113.71 256.119 112.63 256.097 111.462C255.97 104.287 263.69 91.4379 269.138 84.4379H269.15C271.433 89.4379 276.604 92.6519 279.725 94.0064C275.849 102.643 262.552 121.139 257.005 114.699V114.699ZM281.914 90.1454C281.545 90.4034 275.024 88.2064 273.764 82.1689C272.695 76.9709 276.274 72.9094 279.737 70.8624C281.224 69.6904 283.463 69.2894 285.105 69.8724C286.63 70.8989 287.043 72.7299 287.043 74.7024C287.043 75.9124 286.882 77.1554 286.741 78.2894L286.71 78.5464C285.618 82.6033 284.006 86.5019 281.914 90.1454V90.1454ZM334.212 112.394C334.207 112.394 332.975 113.491 332.975 113.491C331.216 115.064 329.406 116.747 327.221 115.905C326.617 115.686 326.193 114.882 326.091 114.258C325.991 109.757 328.018 105.586 329.984 101.525L330.488 100.463C336.142 91.0229 342.714 79.8989 352.366 72.1789C353.992 71.0054 355.757 70.0194 357.62 70.7884C358.049 71.1904 358.548 71.8859 358.548 72.5804C358.548 72.8009 358.352 73.3859 358.239 73.5684C355.543 77.9249 352.976 82.4979 350.48 86.8889C345.601 95.5614 340.539 104.525 334.212 112.394V112.394Z" fill="black"/>
</g>
<defs>
<clipPath id="clip0">
<rect width="400" height="132" fill="white" transform="translate(0 0.187988)"/>
</clipPath>
</defs>
</svg>
