<svg width="400" height="151" viewBox="0 0 400 151" fill="none" xmlns="http://www.w3.org/2000/svg">
<path d="M210.558 74.582C207.875 74.582 205.941 75.4617 203.98 76.3579V96.6376C205.859 96.8165 206.935 96.8165 208.717 96.8165C215.156 96.8165 216.039 93.8677 216.039 89.7504V80.0647C216.039 77.0241 215.03 74.582 210.558 74.582V74.582ZM167.794 73.4752C163.326 73.4752 162.307 75.9278 162.307 78.9654V80.6722H173.275V78.9654C173.275 75.9278 172.256 73.4752 167.794 73.4752ZM84.9519 94.5835C84.9519 96.9865 86.0857 98.2346 88.588 98.2346C91.2722 98.2346 92.8617 97.3594 94.821 96.4602V91.6496H88.9519C86.1729 91.6496 84.9519 92.1669 84.9519 94.5835ZM252.156 74.582C247.681 74.582 246.131 77.0241 246.131 80.0647V91.1609C246.131 94.209 247.681 96.6586 252.156 96.6586C256.62 96.6586 258.182 94.209 258.182 91.1609V80.0647C258.18 77.0241 256.618 74.582 252.156 74.582V74.582ZM63.021 107.026H49.8662V75.185H43.2932V64.2135H49.8677V57.6241C49.8677 48.6722 53.5774 43.3504 64.1218 43.3504H72.9007V54.3248H67.4135C63.3083 54.3248 63.0376 55.8586 63.0376 58.7203L63.021 64.212H72.9609L71.7985 75.1835H63.021V107.026V107.026ZM107.979 107.108H97.015L96.5413 104.335C91.5353 107.108 87.0677 107.558 84.1203 107.558C76.0797 107.558 71.8 102.186 71.8 94.7579C71.8 85.994 76.794 82.8662 85.7278 82.8662H94.821V80.9714C94.821 76.4977 94.3083 75.185 87.4286 75.185H76.1804L77.2797 64.2135H89.5744C104.669 64.2135 107.979 68.982 107.979 81.0601V107.108V107.108ZM145.262 75.9895C138.439 74.8195 136.48 74.5624 133.197 74.5624C127.301 74.5624 125.519 75.8632 125.519 80.8707V90.3429C125.519 95.3504 127.301 96.6571 133.197 96.6571C136.48 96.6571 138.439 96.3955 145.262 95.221V105.923C139.286 107.263 135.392 107.615 132.102 107.615C117.979 107.615 112.365 100.188 112.365 89.4586V81.7729C112.365 71.0346 117.979 63.594 132.102 63.594C135.392 63.594 139.286 63.9474 145.262 65.2932V75.9895V75.9895ZM186.429 89.4586H162.305V90.3429C162.305 95.3504 164.089 96.6571 169.983 96.6571C175.283 96.6571 178.517 96.3955 185.328 95.221V105.923C178.759 107.263 175.337 107.615 168.893 107.615C154.768 107.615 149.152 100.188 149.152 89.4586V80.6707C149.152 71.2827 153.319 63.594 167.792 63.594C182.266 63.594 186.429 71.194 186.429 80.6707V89.4586V89.4586ZM229.191 89.6617C229.191 100.032 226.227 107.595 208.272 107.595C201.788 107.595 197.985 107.026 190.829 105.925V46.6466L203.979 44.4526V65.188C206.821 64.1323 210.499 63.5955 213.847 63.5955C226.998 63.5955 229.189 69.4917 229.189 78.9669V89.6617H229.191ZM271.346 89.8872C271.346 98.8331 267.653 107.51 252.2 107.51C236.74 107.51 232.977 98.8331 232.977 89.8872V81.2496C232.977 72.2992 236.74 63.621 252.2 63.621C267.653 63.621 271.346 72.2992 271.346 81.2496V89.8872ZM313.472 89.8872C313.472 98.8331 309.774 107.51 294.325 107.51C278.865 107.51 275.102 98.8331 275.102 89.8872V81.2496C275.102 72.2992 278.865 63.621 294.325 63.621C309.774 63.621 313.472 72.2992 313.472 81.2496V89.8872ZM356.704 107.026H342.45L330.394 86.9008V107.026H317.239V46.6451L330.394 44.4511V83.3218L342.45 64.2135H356.704L343.543 85.0662L356.704 107.026V107.026ZM294.28 74.582C289.812 74.582 288.262 77.0241 288.262 80.0647V91.1609C288.262 94.209 289.812 96.6586 294.28 96.6586C298.741 96.6586 300.32 94.209 300.32 91.1609V80.0647C300.32 77.0241 298.741 74.582 294.28 74.582ZM364.212 99.5158C366.427 99.5158 368.191 101.322 368.191 103.577C368.191 105.868 366.426 107.654 364.195 107.654C361.976 107.654 360.176 105.868 360.176 103.577C360.176 101.322 361.976 99.5158 364.195 99.5158H364.212V99.5158ZM364.195 100.147C362.411 100.147 360.95 101.683 360.95 103.577C360.95 105.507 362.412 107.023 364.212 107.023C366.014 107.041 367.453 105.507 367.453 103.595C367.453 101.684 366.014 100.147 364.212 100.147H364.195V100.147ZM363.439 105.941H362.717V101.409C363.096 101.356 363.457 101.304 363.999 101.304C364.684 101.304 365.132 101.448 365.408 101.645C365.674 101.845 365.817 102.15 365.817 102.582C365.817 103.18 365.423 103.54 364.937 103.686V103.72C365.332 103.794 365.602 104.152 365.693 104.818C365.799 105.523 365.908 105.792 365.979 105.94H365.223C365.116 105.792 365.006 105.379 364.916 104.782C364.811 104.206 364.519 103.989 363.941 103.989H363.441V105.941H363.439ZM363.439 103.433H363.962C364.555 103.433 365.059 103.215 365.059 102.654C365.059 102.257 364.773 101.862 363.962 101.862C363.726 101.862 363.562 101.88 363.439 101.896V103.433Z" fill="black"/>
</svg>
