<svg width="31" height="10" viewBox="0 0 31 10" fill="none" xmlns="http://www.w3.org/2000/svg">
<path d="M2.51953 7.58789H6.25195V9H0.761719V0.46875H2.51953V7.58789ZM13.8984 4.92773C13.8984 5.76758 13.75 6.50391 13.4531 7.13672C13.1562 7.76953 12.7305 8.25781 12.1758 8.60156C11.625 8.94531 10.9922 9.11719 10.2773 9.11719C9.57031 9.11719 8.93945 8.94727 8.38477 8.60742C7.83008 8.26758 7.40039 7.7832 7.0957 7.1543C6.79102 6.52148 6.63672 5.79492 6.63281 4.97461V4.55273C6.63281 3.71289 6.7832 2.97461 7.08398 2.33789C7.38867 1.69727 7.81641 1.20703 8.36719 0.867188C8.92188 0.523437 9.55469 0.351562 10.2656 0.351562C10.9766 0.351562 11.6074 0.523437 12.1582 0.867188C12.7129 1.20703 13.1406 1.69727 13.4414 2.33789C13.7461 2.97461 13.8984 3.71094 13.8984 4.54688V4.92773ZM12.1172 4.54102C12.1172 3.64648 11.957 2.9668 11.6367 2.50195C11.3164 2.03711 10.8594 1.80469 10.2656 1.80469C9.67578 1.80469 9.2207 2.03516 8.90039 2.49609C8.58008 2.95312 8.41797 3.625 8.41406 4.51172V4.92773C8.41406 5.79883 8.57422 6.47461 8.89453 6.95508C9.21484 7.43555 9.67578 7.67578 10.2773 7.67578C10.8672 7.67578 11.3203 7.44531 11.6367 6.98438C11.9531 6.51953 12.1133 5.84375 12.1172 4.95703V4.54102ZM21.9258 7.92188C21.6094 8.30078 21.1621 8.5957 20.584 8.80664C20.0059 9.01367 19.3652 9.11719 18.6621 9.11719C17.9238 9.11719 17.2754 8.95703 16.7168 8.63672C16.1621 8.3125 15.7324 7.84375 15.4277 7.23047C15.127 6.61719 14.9727 5.89648 14.9648 5.06836V4.48828C14.9648 3.63672 15.1074 2.90039 15.3926 2.2793C15.6816 1.6543 16.0957 1.17773 16.6348 0.849609C17.1777 0.517578 17.8125 0.351562 18.5391 0.351562C19.5508 0.351562 20.3418 0.59375 20.9121 1.07812C21.4824 1.55859 21.8203 2.25977 21.9258 3.18164H20.2148C20.1367 2.69336 19.9629 2.33594 19.6934 2.10938C19.4277 1.88281 19.0605 1.76953 18.5918 1.76953C17.9941 1.76953 17.5391 1.99414 17.2266 2.44336C16.9141 2.89258 16.7559 3.56055 16.752 4.44727V4.99219C16.752 5.88672 16.9219 6.5625 17.2617 7.01953C17.6016 7.47656 18.0996 7.70508 18.7559 7.70508C19.416 7.70508 19.8867 7.56445 20.168 7.2832V5.8125H18.5684V4.51758H21.9258V7.92188ZM30.3633 4.92773C30.3633 5.76758 30.2148 6.50391 29.918 7.13672C29.6211 7.76953 29.1953 8.25781 28.6406 8.60156C28.0898 8.94531 27.457 9.11719 26.7422 9.11719C26.0352 9.11719 25.4043 8.94727 24.8496 8.60742C24.2949 8.26758 23.8652 7.7832 23.5605 7.1543C23.2559 6.52148 23.1016 5.79492 23.0977 4.97461V4.55273C23.0977 3.71289 23.248 2.97461 23.5488 2.33789C23.8535 1.69727 24.2812 1.20703 24.832 0.867188C25.3867 0.523437 26.0195 0.351562 26.7305 0.351562C27.4414 0.351562 28.0723 0.523437 28.623 0.867188C29.1777 1.20703 29.6055 1.69727 29.9062 2.33789C30.2109 2.97461 30.3633 3.71094 30.3633 4.54688V4.92773ZM28.582 4.54102C28.582 3.64648 28.4219 2.9668 28.1016 2.50195C27.7812 2.03711 27.3242 1.80469 26.7305 1.80469C26.1406 1.80469 25.6855 2.03516 25.3652 2.49609C25.0449 2.95312 24.8828 3.625 24.8789 4.51172V4.92773C24.8789 5.79883 25.0391 6.47461 25.3594 6.95508C25.6797 7.43555 26.1406 7.67578 26.7422 7.67578C27.332 7.67578 27.7852 7.44531 28.1016 6.98438C28.418 6.51953 28.5781 5.84375 28.582 4.95703V4.54102Z" fill="white"/>
</svg>
