
<svg width="400" height="166" viewBox="0 0 400 166" fill="none" xmlns="http://www.w3.org/2000/svg">
<mask id="mask0" mask-type="alpha" maskUnits="userSpaceOnUse" x="0" y="0" width="400" height="166">
<path d="M0 0.0401001H400V165.96H0V0.0401001Z" fill="white"/>
</mask>
<g mask="url(#mask0)">
<path fill-rule="evenodd" clip-rule="evenodd" d="M41.7517 74.6749C33.1312 71.4864 28.4069 69.0065 28.4069 65.1094C28.4069 61.8022 31.1233 59.913 35.9654 59.913C44.8224 59.913 53.9149 63.338 60.1741 66.4078L63.7169 44.5613C58.757 42.1992 48.6008 38.3021 34.5483 38.3021C24.6285 38.3021 16.3615 40.8998 10.4574 45.7419C4.31603 50.8196 1.12753 58.1417 1.12753 66.9986C1.12753 83.0589 10.9295 89.9089 26.872 95.6951C37.1461 99.3557 40.571 101.954 40.571 105.969C40.571 109.866 37.2639 112.11 31.2411 112.11C23.8013 112.11 11.5203 108.449 3.48968 103.726L-0.0531006 125.809C6.79597 129.706 19.55 133.721 32.7769 133.721C43.2866 133.721 52.0257 131.241 57.9307 126.517C64.5433 121.321 67.9682 113.645 67.9682 103.726C67.9682 87.3102 57.9307 80.4612 41.7517 74.6749V74.6749ZM125.642 61.8022L129.185 40.0735H110.482V13.6957L85.3349 17.8337L81.7036 40.0735L72.859 41.5083L69.5483 61.8022H81.6673V104.434C81.6673 115.535 84.5015 123.211 90.2877 127.934C95.1298 131.831 102.097 133.721 111.899 133.721C119.456 133.721 124.062 132.422 127.25 131.595V108.567C125.479 109.04 121.464 109.866 118.748 109.866C112.962 109.866 110.482 106.914 110.482 100.183V61.8022H125.642ZM181.809 38.8043C173.543 38.8043 166.93 43.1442 164.332 50.9383L162.56 40.0735H136.935V131.949H166.221V72.3128C169.882 67.825 175.078 66.2024 182.163 66.2024C183.699 66.2024 185.352 66.2024 187.36 66.5566V39.5128C185.352 39.0408 183.581 38.8043 181.809 38.8043ZM209.207 30.9801C217.71 30.9801 224.559 24.0132 224.559 15.5105C224.559 6.88918 217.71 0.0401001 209.207 0.0401001C200.586 0.0401001 193.737 6.88918 193.737 15.5105C193.737 24.0132 200.586 30.9801 209.207 30.9801V30.9801ZM194.445 40.0735H223.85V131.949H194.445V40.0735V40.0735ZM307.179 48.3397C301.983 41.6084 294.78 38.3021 285.568 38.3021C277.066 38.3021 269.626 41.8449 262.658 49.2847L261.123 40.0735H235.379V165.96L264.666 161.119V131.595C269.153 133.012 273.758 133.721 277.892 133.721C285.214 133.721 295.842 131.831 304.109 122.857C312.02 114.235 316.036 100.891 316.036 83.2954C316.036 67.7072 313.083 55.8982 307.179 48.3397ZM282.852 105.024C280.49 109.512 276.829 111.874 272.578 111.874C269.626 111.874 267.027 111.283 264.666 110.103V66.4078C269.626 61.2124 274.113 60.6216 275.766 60.6216C283.206 60.6216 286.867 68.6522 286.867 84.3582C286.867 93.333 285.568 100.301 282.852 105.024V105.024ZM400 85.1846C400 70.5414 396.812 58.968 390.552 50.8196C384.175 42.5534 374.61 38.3021 362.447 38.3021C337.528 38.3021 322.059 56.7245 322.059 86.2474C322.059 102.781 326.192 115.18 334.34 123.092C341.662 130.178 352.173 133.721 365.753 133.721C378.27 133.721 389.844 130.769 397.166 125.927L393.977 105.851C386.773 109.748 378.389 111.874 368.941 111.874C363.273 111.874 359.376 110.693 356.542 108.213C353.471 105.615 351.7 101.364 351.11 95.3408H399.646C399.764 93.9237 400 87.3102 400 85.1846V85.1846ZM350.873 77.3905C351.7 64.2822 355.242 58.1417 361.974 58.1417C368.587 58.1417 372.012 64.4009 372.484 77.3905H350.873V77.3905Z" fill="#1A1918"/>
</g>
</svg>
