<svg width="400" height="55" viewBox="0 0 400 55" fill="none" xmlns="http://www.w3.org/2000/svg">
<path d="M341.852 21.8039V53.2468H351.902V32.2849H388.658V53.2468H398.708V21.8039H341.852ZM350.754 11.6101H389.519C394.975 10.6051 398.851 5.72352 400 1.12912H340.273C341.421 5.72352 345.442 10.4615 350.754 11.6101ZM311.271 53.2468C316.296 51.0932 319.024 47.3603 320.172 43.053H274.946V1.27269H264.752V53.2468H311.271V53.2468ZM189.375 11.4665H225.269C230.725 9.8872 235.176 5.72352 236.325 1.27269H179.469V31.9977H225.987V42.7659H189.519C183.776 44.3452 178.894 48.2217 176.454 53.2468H236.037V21.8039H189.519L189.375 11.4665ZM100.933 11.6101H139.699C145.154 10.6051 149.174 5.72352 150.179 1.12912H90.3087C91.4573 5.72352 95.4774 10.4615 100.933 11.6101ZM100.933 32.1413H139.699C145.154 31.1363 149.174 26.2547 150.179 21.6603H90.3087C91.4573 26.2547 95.4774 30.9927 100.933 32.1413ZM100.933 53.2468H139.699C145.154 52.2418 149.174 47.3603 150.179 42.7659H90.3087C91.4573 47.3603 95.4774 52.2418 100.933 53.2468Z" fill="black"/>
<path d="M0 1.27269C1.1486 5.8671 5.1687 10.4615 10.481 11.6101H26.8485L27.71 11.8972V53.1033H37.9038V11.8972L38.7653 11.6101H55.1328C60.5887 10.1743 64.4652 5.8671 65.6138 1.27269V1.12912L0 1.27269Z" fill="black"/>
</svg>
